<svg xmlns="http://www.w3.org/2000/svg" viewBox="0 0 1280 1184" width="1280" height="1184" font-family="ui-sans-serif,-apple-system,'PingFang SC','Microsoft YaHei','Segoe UI',Roboto,sans-serif">
<rect width="1280" height="1184" fill="#0d1117" rx="14"/>
<defs>
      <marker id="ar" viewBox="0 0 10 10" refX="9" refY="5" markerWidth="7" markerHeight="7" orient="auto-start-reverse">
        <path d="M0 0 L10 5 L0 10 z" fill="#9aa5b1"/></marker>
      <marker id="arA" viewBox="0 0 10 10" refX="9" refY="5" markerWidth="7" markerHeight="7" orient="auto-start-reverse">
        <path d="M0 0 L10 5 L0 10 z" fill="#e8a33d"/></marker>
      <marker id="arE" viewBox="0 0 10 10" refX="9" refY="5" markerWidth="7" markerHeight="7" orient="auto-start-reverse">
        <path d="M0 0 L10 5 L0 10 z" fill="#34d399"/></marker>
      <marker id="arC" viewBox="0 0 10 10" refX="9" refY="5" markerWidth="7" markerHeight="7" orient="auto-start-reverse">
        <path d="M0 0 L10 5 L0 10 z" fill="#22d3ee"/></marker>
    </defs>
<text x="40" y="48" fill="#e6edf3" font-size="26" font-weight="800">VibeML · Multi-Agent 技术框架</text>
<text x="40" y="74" fill="#9aa5b1" font-size="14">Agent 只通过工具调用驱动既有确定性流水线，不重新实现任何训练逻辑</text>
<line x1="40" y1="92" x2="1240" y2="92" stroke="#30363d"/>
<rect x="40" y="112" width="780" height="40" rx="20" fill="#1c2129" stroke="#30363d" stroke-width="1.5"/>
<text x="430.0" y="138" fill="#e6edf3" font-size="15" text-anchor="middle" font-weight="600">用户消息（自然语言）</text>
<path d="M430.0 152 L430.0 176" stroke="#9aa5b1" stroke-width="2" marker-end="url(#ar)"/>
<rect x="40" y="180" width="780" height="152" rx="12" fill="#161b22" stroke="#30363d" stroke-width="1.5"/>
<rect x="40" y="180" width="5" height="152" rx="2.5" fill="#818cf8"/>
<text x="62" y="211" fill="#818cf8" font-size="18.0" font-weight="700">AgentOrchestrator</text>
<text x="62" y="233" fill="#9aa5b1" font-size="12.5">core/agent/agent_orchestrator.py · 主循环</text>
<rect x="62" y="246" width="69" height="23" rx="11.5" fill="#818cf8" opacity="0.16"/>
<text x="96" y="262" fill="#818cf8" font-size="12" text-anchor="middle" font-weight="600">≤ 15 轮</text>
<rect x="139.8" y="246" width="76" height="23" rx="11.5" fill="#818cf8" opacity="0.16"/>
<text x="178" y="262" fill="#818cf8" font-size="12" text-anchor="middle" font-weight="600">≤ 300 秒</text>
<rect x="224.56" y="246" width="94" height="23" rx="11.5" fill="#818cf8" opacity="0.16"/>
<text x="272" y="262" fill="#818cf8" font-size="12" text-anchor="middle" font-weight="600">超限友好收尾</text>
<rect x="62" y="282" width="70" height="26" rx="7" fill="#21262d" stroke="#9aa5b1" stroke-width="1.15"/>
<text x="97.0" y="299.3" fill="#9aa5b1" font-size="12" text-anchor="middle" font-family="ui-sans-serif,-apple-system,'PingFang SC','Microsoft YaHei','Segoe UI',Roboto,sans-serif">制定计划</text>
<path d="M133 295 l8 0" stroke="#768390" stroke-width="1.5" marker-end="url(#ar)"/>
<rect x="144" y="282" width="70" height="26" rx="7" fill="#21262d" stroke="#9aa5b1" stroke-width="1.15"/>
<text x="179.0" y="299.3" fill="#9aa5b1" font-size="12" text-anchor="middle" font-family="ui-sans-serif,-apple-system,'PingFang SC','Microsoft YaHei','Segoe UI',Roboto,sans-serif">选择工具</text>
<path d="M215 295 l8 0" stroke="#768390" stroke-width="1.5" marker-end="url(#ar)"/>
<rect x="226" y="282" width="94" height="26" rx="7" fill="#21262d" stroke="#9aa5b1" stroke-width="1.15"/>
<text x="273.0" y="299.3" fill="#9aa5b1" font-size="12" text-anchor="middle" font-family="ui-sans-serif,-apple-system,'PingFang SC','Microsoft YaHei','Segoe UI',Roboto,sans-serif">读取真实结果</text>
<path d="M321 295 l8 0" stroke="#768390" stroke-width="1.5" marker-end="url(#ar)"/>
<rect x="332" y="282" width="94" height="26" rx="7" fill="#21262d" stroke="#9aa5b1" stroke-width="1.15"/>
<text x="379.0" y="299.3" fill="#9aa5b1" font-size="12" text-anchor="middle" font-family="ui-sans-serif,-apple-system,'PingFang SC','Microsoft YaHei','Segoe UI',Roboto,sans-serif">判断是否收敛</text>
<g transform="translate(0,34)">
<path d="M430.0 298 L430.0 324" stroke="#9aa5b1" stroke-width="2" marker-end="url(#ar)"/>
<text x="442.0" y="317" fill="#768390" font-size="12" font-family="ui-monospace,SFMono-Regular,'SF Mono',Menlo,monospace">complete_with_tools()</text>
<rect x="40" y="328" width="780" height="242" rx="12" fill="#161b22" stroke="#30363d" stroke-width="1.5"/>
<rect x="40" y="328" width="5" height="242" rx="2.5" fill="#c4b5fd"/>
<text x="62" y="359" fill="#c4b5fd" font-size="18.0" font-weight="700">Provider 无关的工具调用抽象</text>
<text x="62" y="381" fill="#9aa5b1" font-size="12.5">Agent 循环不认识任何一家的 wire format（core/llm_client.py）</text>
<rect x="62" y="392" width="100.03999999999999" height="26" rx="7" fill="#21262d" stroke="#c4b5fd" stroke-width="1.15"/>
<text x="112.02" y="409.3" fill="#c4b5fd" font-size="11.5" text-anchor="middle" font-family="ui-monospace,SFMono-Regular,'SF Mono',Menlo,monospace">AgentMessage</text>
<rect x="170.04" y="392" width="66.69" height="26" rx="7" fill="#21262d" stroke="#c4b5fd" stroke-width="1.15"/>
<text x="203.385" y="409.3" fill="#c4b5fd" font-size="11.5" text-anchor="middle" font-family="ui-monospace,SFMono-Regular,'SF Mono',Menlo,monospace">ToolDef</text>
<rect x="244.73" y="392" width="73.36" height="26" rx="7" fill="#21262d" stroke="#c4b5fd" stroke-width="1.15"/>
<text x="281.40999999999997" y="409.3" fill="#c4b5fd" font-size="11.5" text-anchor="middle" font-family="ui-monospace,SFMono-Regular,'SF Mono',Menlo,monospace">ToolCall</text>
<rect x="326.09" y="392" width="86.7" height="26" rx="7" fill="#21262d" stroke="#c4b5fd" stroke-width="1.15"/>
<text x="369.44" y="409.3" fill="#c4b5fd" font-size="11.5" text-anchor="middle" font-family="ui-monospace,SFMono-Regular,'SF Mono',Menlo,monospace">ToolResult</text>
<rect x="420.78999999999996" y="392" width="126.72" height="26" rx="7" fill="#21262d" stroke="#c4b5fd" stroke-width="1.15"/>
<text x="484.15" y="409.3" fill="#c4b5fd" font-size="11.5" text-anchor="middle" font-family="ui-monospace,SFMono-Regular,'SF Mono',Menlo,monospace">CompletionResult</text>
<text x="62" y="440" fill="#9aa5b1" font-size="12.5">各 provider 自行双向翻译</text>
<rect x="62" y="452" width="246" height="46" rx="9" fill="#1c2129" stroke="#c4b5fd" stroke-width="1.15"/>
<text x="185" y="470" fill="#e6edf3" font-size="13" text-anchor="middle" font-weight="600">Anthropic</text>
<text x="185" y="487" fill="#768390" font-size="10.5" text-anchor="middle" font-family="ui-monospace,SFMono-Regular,'SF Mono',Menlo,monospace">tool_use block</text>
<rect x="314" y="452" width="246" height="46" rx="9" fill="#1c2129" stroke="#c4b5fd" stroke-width="1.15"/>
<text x="437" y="470" fill="#e6edf3" font-size="13" text-anchor="middle" font-weight="600">Ollama</text>
<text x="437" y="487" fill="#768390" font-size="10.5" text-anchor="middle" font-family="ui-monospace,SFMono-Regular,'SF Mono',Menlo,monospace">OpenAI 形状 · 需补 id</text>
<rect x="566" y="452" width="246" height="46" rx="9" fill="#1c2129" stroke="#c4b5fd" stroke-width="1.15"/>
<text x="689" y="470" fill="#e6edf3" font-size="13" text-anchor="middle" font-weight="600">OpenAI 兼容</text>
<text x="689" y="487" fill="#768390" font-size="10.5" text-anchor="middle" font-family="ui-monospace,SFMono-Regular,'SF Mono',Menlo,monospace">arguments 为 JSON 串</text>
<rect x="62" y="518" width="736" height="36" rx="8" fill="#fb7185" opacity="0.11"/>
<rect x="62" y="518" width="736" height="36" rx="8" fill="none" stroke="#fb7185" stroke-width="1.25" stroke-dasharray="5 4"/>
<text x="80" y="541" fill="#fb7185" font-size="13" font-weight="700">配额网关</text>
<text x="190" y="541" fill="#9aa5b1" font-size="12">每次工具调用都计量入账 —— 挂在 complete_with_tools() 上，而非只挂 complete()</text>
<path d="M430.0 570 L430.0 596" stroke="#e8a33d" stroke-width="2.2" marker-end="url(#arA)"/>
<rect x="40" y="600" width="780" height="272" rx="12" fill="#161b22" stroke="#30363d" stroke-width="1.5"/>
<rect x="40" y="600" width="5" height="272" rx="2.5" fill="#e8a33d"/>
<text x="62" y="631" fill="#e8a33d" font-size="18.0" font-weight="700">11 个工具</text>
<text x="62" y="653" fill="#9aa5b1" font-size="12.5">core/agent/tools.py · 包装既有能力，不新增任何实现</text>
<text x="62" y="678" fill="#e8a33d" font-size="12.5" font-weight="700">计划</text>
<rect x="62" y="687" width="236" height="25" rx="7" fill="#21262d" stroke="#9aa5b1" stroke-width="1.15"/>
<text x="180.0" y="703.8" fill="#9aa5b1" font-size="11.5" text-anchor="middle" font-family="ui-monospace,SFMono-Regular,'SF Mono',Menlo,monospace">set_plan</text>
<rect x="62" y="716" width="236" height="25" rx="7" fill="#21262d" stroke="#9aa5b1" stroke-width="1.15"/>
<text x="180.0" y="732.8" fill="#9aa5b1" font-size="11.5" text-anchor="middle" font-family="ui-monospace,SFMono-Regular,'SF Mono',Menlo,monospace">update_step_status</text>
<text x="312" y="678" fill="#e8a33d" font-size="12.5" font-weight="700">数据</text>
<rect x="312" y="687" width="236" height="25" rx="7" fill="#21262d" stroke="#9aa5b1" stroke-width="1.15"/>
<text x="430.0" y="703.8" fill="#9aa5b1" font-size="11.5" text-anchor="middle" font-family="ui-monospace,SFMono-Regular,'SF Mono',Menlo,monospace">search_datasets</text>
<rect x="312" y="716" width="236" height="25" rx="7" fill="#21262d" stroke="#9aa5b1" stroke-width="1.15"/>
<text x="430.0" y="732.8" fill="#9aa5b1" font-size="11.5" text-anchor="middle" font-family="ui-monospace,SFMono-Regular,'SF Mono',Menlo,monospace">preview_dataset</text>
<rect x="312" y="745" width="236" height="25" rx="7" fill="#21262d" stroke="#9aa5b1" stroke-width="1.15"/>
<text x="430.0" y="761.8" fill="#9aa5b1" font-size="11.5" text-anchor="middle" font-family="ui-monospace,SFMono-Regular,'SF Mono',Menlo,monospace">request_dataset_confirmation</text>
<text x="562" y="678" fill="#e8a33d" font-size="12.5" font-weight="700">建模</text>
<rect x="562" y="687" width="236" height="25" rx="7" fill="#21262d" stroke="#9aa5b1" stroke-width="1.15"/>
<text x="680.0" y="703.8" fill="#9aa5b1" font-size="11.5" text-anchor="middle" font-family="ui-monospace,SFMono-Regular,'SF Mono',Menlo,monospace">design_architecture</text>
<rect x="562" y="716" width="236" height="25" rx="7" fill="#21262d" stroke="#9aa5b1" stroke-width="1.15"/>
<text x="680.0" y="732.8" fill="#9aa5b1" font-size="11.5" text-anchor="middle" font-family="ui-monospace,SFMono-Regular,'SF Mono',Menlo,monospace">select_backbone</text>
<text x="62" y="804" fill="#e8a33d" font-size="12.5" font-weight="700">训练</text>
<rect x="62" y="813" width="236" height="25" rx="7" fill="#21262d" stroke="#9aa5b1" stroke-width="1.15"/>
<text x="180.0" y="829.8" fill="#9aa5b1" font-size="11.5" text-anchor="middle" font-family="ui-monospace,SFMono-Regular,'SF Mono',Menlo,monospace">submit_training</text>
<rect x="62" y="842" width="236" height="25" rx="7" fill="#21262d" stroke="#9aa5b1" stroke-width="1.15"/>
<text x="180.0" y="858.8" fill="#9aa5b1" font-size="11.5" text-anchor="middle" font-family="ui-monospace,SFMono-Regular,'SF Mono',Menlo,monospace">check_training_progress</text>
<text x="312" y="804" fill="#e8a33d" font-size="12.5" font-weight="700">协作</text>
<rect x="312" y="813" width="236" height="25" rx="7" fill="#21262d" stroke="#9aa5b1" stroke-width="1.15"/>
<text x="430.0" y="829.8" fill="#9aa5b1" font-size="11.5" text-anchor="middle" font-family="ui-monospace,SFMono-Regular,'SF Mono',Menlo,monospace">spawn_subagent</text>
<text x="562" y="804" fill="#e8a33d" font-size="12.5" font-weight="700">收尾</text>
<rect x="562" y="813" width="236" height="25" rx="7" fill="#21262d" stroke="#9aa5b1" stroke-width="1.15"/>
<text x="680.0" y="829.8" fill="#9aa5b1" font-size="11.5" text-anchor="middle" font-family="ui-monospace,SFMono-Regular,'SF Mono',Menlo,monospace">finish_run</text>
<path d="M430.0 872 L430.0 898" stroke="#34d399" stroke-width="2.4" marker-end="url(#arE)"/>
<rect x="40" y="902" width="780" height="214" rx="12" fill="#161b22" stroke="#30363d" stroke-width="1.5"/>
<rect x="40" y="902" width="5" height="214" rx="2.5" fill="#34d399"/>
<text x="62" y="933" fill="#34d399" font-size="18.0" font-weight="700">确定性执行层</text>
<text x="62" y="955" fill="#9aa5b1" font-size="12.5">训练、评估、部署的全部实现 —— Agent 只调用，不改写，也绕不开</text>
<rect x="62" y="960" width="178" height="48" rx="9" fill="#1c2129" stroke="#34d399" stroke-width="1.15"/>
<text x="151" y="979" fill="#e6edf3" font-size="11.5" text-anchor="middle" font-family="ui-monospace,SFMono-Regular,'SF Mono',Menlo,monospace">api/worker.py</text>
<text x="151" y="996" fill="#768390" font-size="10.5" text-anchor="middle">submit_training_job</text>
<rect x="248" y="960" width="178" height="48" rx="9" fill="#1c2129" stroke="#34d399" stroke-width="1.15"/>
<text x="337" y="979" fill="#e6edf3" font-size="11.5" text-anchor="middle" font-family="ui-monospace,SFMono-Regular,'SF Mono',Menlo,monospace">core/pipeline.py</text>
<text x="337" y="996" fill="#768390" font-size="10.5" text-anchor="middle">训练 → 评估 → 门禁</text>
<rect x="434" y="960" width="178" height="48" rx="9" fill="#1c2129" stroke="#34d399" stroke-width="1.15"/>
<text x="523" y="979" fill="#e6edf3" font-size="11.5" text-anchor="middle" font-family="ui-monospace,SFMono-Regular,'SF Mono',Menlo,monospace">core/*_trainer.py</text>
<text x="523" y="996" fill="#768390" font-size="10.5" text-anchor="middle">7 种后端 · 子进程隔离</text>
<rect x="620" y="960" width="178" height="48" rx="9" fill="#1c2129" stroke="#34d399" stroke-width="1.15"/>
<text x="709" y="979" fill="#e6edf3" font-size="11.5" text-anchor="middle" font-family="ui-monospace,SFMono-Regular,'SF Mono',Menlo,monospace">core/*_deployer.py</text>
<text x="709" y="996" fill="#768390" font-size="10.5" text-anchor="middle">独立可运行部署包</text>
<rect x="62" y="1024" width="736" height="68" rx="9" fill="#17251f" stroke="#34d399" stroke-width="1.15"/>
<text x="80" y="1048" fill="#34d399" font-size="13.5" font-weight="700">Agent 够不到的地方</text>
<text x="80" y="1069" fill="#9aa5b1" font-size="12">AST 白名单沙盒 · 子进程墙钟超时 · 噪声门禁判定</text>
<text x="80" y="1086" fill="#9aa5b1" font-size="12">绝不让 LLM 自己认定「这样就算成功了」</text>
</g>
<rect x="856" y="180" width="384" height="196" rx="12" fill="#161b22" stroke="#30363d" stroke-width="1.5"/>
<rect x="856" y="180" width="5" height="196" rx="2.5" fill="#22d3ee"/>
<text x="878" y="211" fill="#22d3ee" font-size="18.0" font-weight="700">短生命周期子 Agent</text>
<text x="878" y="233" fill="#9aa5b1" font-size="12.5">core/agent/subagent.py</text>
<rect x="878" y="246" width="74" height="23" rx="11.5" fill="#22d3ee" opacity="0.16"/>
<text x="915" y="262" fill="#22d3ee" font-size="12" text-anchor="middle" font-weight="600">并发 ≤ 3</text>
<rect x="960.84" y="246" width="93" height="23" rx="11.5" fill="#22d3ee" opacity="0.16"/>
<text x="1007" y="262" fill="#22d3ee" font-size="12" text-anchor="middle" font-weight="600">每个 ≤ 8 轮</text>
<text x="878" y="296" fill="#9aa5b1" font-size="12.5">只拿到只读工具</text>
<rect x="878" y="306" width="166" height="25" rx="7" fill="#21262d" stroke="#22d3ee" stroke-width="1.15"/>
<text x="961.0" y="322.8" fill="#22d3ee" font-size="11.5" text-anchor="middle" font-family="ui-monospace,SFMono-Regular,'SF Mono',Menlo,monospace">search_datasets</text>
<rect x="1052" y="306" width="166" height="25" rx="7" fill="#21262d" stroke="#22d3ee" stroke-width="1.15"/>
<text x="1135.0" y="322.8" fill="#22d3ee" font-size="11.5" text-anchor="middle" font-family="ui-monospace,SFMono-Regular,'SF Mono',Menlo,monospace">preview_dataset</text>
<text x="878" y="352" fill="#fb7185" font-size="12">✕ 不含 submit_training 等有副作用的工具</text>
<text x="878" y="369" fill="#768390" font-size="11.5">结论作为一条 tool_result 回灌主 Agent</text>
<path d="M830 240 L846 240" stroke="#22d3ee" stroke-width="1.8" stroke-dasharray="6 4" marker-end="url(#arC)"/>
<rect x="856" y="406" width="384" height="338" rx="12" fill="#161b22" stroke="#30363d" stroke-width="1.5"/>
<rect x="856" y="406" width="5" height="338" rx="2.5" fill="#60a5fa"/>
<text x="878" y="437" fill="#60a5fa" font-size="18.0" font-weight="700">实时事件流 · 10 种</text>
<text x="878" y="459" fill="#9aa5b1" font-size="12.5">AgentEvent → WebSocket → 前端</text>
<rect x="878" y="474" width="168" height="25" rx="7" fill="#21262d" stroke="#60a5fa" stroke-width="1.15"/>
<text x="962.0" y="490.8" fill="#60a5fa" font-size="10.5" text-anchor="middle" font-family="ui-monospace,SFMono-Regular,'SF Mono',Menlo,monospace">plan_created</text>
<rect x="1054" y="474" width="168" height="25" rx="7" fill="#21262d" stroke="#60a5fa" stroke-width="1.15"/>
<text x="1138.0" y="490.8" fill="#60a5fa" font-size="10.5" text-anchor="middle" font-family="ui-monospace,SFMono-Regular,'SF Mono',Menlo,monospace">plan_step_update</text>
<rect x="878" y="503" width="168" height="25" rx="7" fill="#21262d" stroke="#60a5fa" stroke-width="1.15"/>
<text x="962.0" y="519.8" fill="#60a5fa" font-size="10.5" text-anchor="middle" font-family="ui-monospace,SFMono-Regular,'SF Mono',Menlo,monospace">tool_result</text>
<rect x="1054" y="503" width="168" height="25" rx="7" fill="#21262d" stroke="#60a5fa" stroke-width="1.15"/>
<text x="1138.0" y="519.8" fill="#60a5fa" font-size="10.5" text-anchor="middle" font-family="ui-monospace,SFMono-Regular,'SF Mono',Menlo,monospace">subagent_spawned</text>
<rect x="878" y="532" width="168" height="25" rx="7" fill="#21262d" stroke="#60a5fa" stroke-width="1.15"/>
<text x="962.0" y="548.8" fill="#60a5fa" font-size="10.5" text-anchor="middle" font-family="ui-monospace,SFMono-Regular,'SF Mono',Menlo,monospace">subagent_done</text>
<rect x="1054" y="532" width="168" height="25" rx="7" fill="#21262d" stroke="#60a5fa" stroke-width="1.15"/>
<text x="1138.0" y="548.8" fill="#60a5fa" font-size="10.5" text-anchor="middle" font-family="ui-monospace,SFMono-Regular,'SF Mono',Menlo,monospace">resource_usage</text>
<rect x="878" y="561" width="168" height="25" rx="7" fill="#21262d" stroke="#60a5fa" stroke-width="1.15"/>
<text x="962.0" y="577.8" fill="#60a5fa" font-size="10.5" text-anchor="middle" font-family="ui-monospace,SFMono-Regular,'SF Mono',Menlo,monospace">confirmation_required</text>
<rect x="1054" y="561" width="168" height="25" rx="7" fill="#21262d" stroke="#60a5fa" stroke-width="1.15"/>
<text x="1138.0" y="577.8" fill="#60a5fa" font-size="10.5" text-anchor="middle" font-family="ui-monospace,SFMono-Regular,'SF Mono',Menlo,monospace">training_snapshot</text>
<rect x="878" y="590" width="168" height="25" rx="7" fill="#21262d" stroke="#60a5fa" stroke-width="1.15"/>
<text x="962.0" y="606.8" fill="#60a5fa" font-size="10.5" text-anchor="middle" font-family="ui-monospace,SFMono-Regular,'SF Mono',Menlo,monospace">fallback_to_workflow</text>
<rect x="1054" y="590" width="168" height="25" rx="7" fill="#21262d" stroke="#60a5fa" stroke-width="1.15"/>
<text x="1138.0" y="606.8" fill="#60a5fa" font-size="10.5" text-anchor="middle" font-family="ui-monospace,SFMono-Regular,'SF Mono',Menlo,monospace">final</text>
<rect x="878" y="627" width="340" height="78" rx="9" fill="#1c2129" stroke="#60a5fa" stroke-width="1.15"/>
<text x="892" y="649" fill="#60a5fa" font-size="12.5" font-weight="700">resource_usage 的可观测字段</text>
<text x="892" y="669" fill="#9aa5b1" font-size="10.5" font-family="ui-monospace,SFMono-Regular,'SF Mono',Menlo,monospace">turn · duration_ms · prompt_tokens</text>
<text x="892" y="687" fill="#9aa5b1" font-size="10.5" font-family="ui-monospace,SFMono-Regular,'SF Mono',Menlo,monospace">completion_tokens · total_tokens</text>
<rect x="856" y="774" width="384" height="386" rx="12" fill="#161b22" stroke="#30363d" stroke-width="1.5"/>
<rect x="856" y="774" width="5" height="386" rx="2.5" fill="#fb7185"/>
<text x="878" y="805" fill="#fb7185" font-size="18.0" font-weight="700">工具调用不可用时自动降级</text>
<text x="878" y="827" fill="#9aa5b1" font-size="12.5">本地小模型 function calling 稳定性参差不齐</text>
<rect x="878" y="844" width="340" height="42" rx="8" fill="#1c2129" stroke="#fb7185" stroke-width="1.2" stroke-dasharray="5 4"/>
<text x="1048.0" y="870" fill="#e6edf3" font-size="12.5" text-anchor="middle">一轮零工具调用 → 退回确定性状态机</text>
<circle cx="884" cy="908" r="2.6" fill="#fb7185"/>
<text x="896" y="912" fill="#9aa5b1" font-size="12">界面如实告知已切换，不假装在思考</text>
<circle cx="884" cy="934" r="2.6" fill="#fb7185"/>
<text x="896" y="938" fill="#9aa5b1" font-size="12">降级是粘性的，不每条消息重新试探</text>
<circle cx="884" cy="960" r="2.6" fill="#fb7185"/>
<text x="896" y="964" fill="#9aa5b1" font-size="12">功能不受影响，只是少了自主决策过程</text>
</svg>